<?xml version="1.0" encoding="UTF-8" standalone="no"?>
<!DOCTYPE svg PUBLIC "-//W3C//DTD SVG 1.1//EN" "http://www.w3.org/Graphics/SVG/1.1/DTD/svg11.dtd">
<svg width="100%" height="100%" viewBox="0 0 267 267" version="1.1" xmlns="http://www.w3.org/2000/svg" xmlns:xlink="http://www.w3.org/1999/xlink" xml:space="preserve" xmlns:serif="http://www.serif.com/" style="fill-rule:evenodd;clip-rule:evenodd;stroke-linecap:round;stroke-linejoin:round;stroke-miterlimit:2;">
    <g transform="matrix(1,0,0,1,-1371.01,-1066.7)">
        <g transform="matrix(0.554628,0,0,0.554628,1282.46,978.149)">
            <g transform="matrix(1.80301,0,0,1.80301,-1421.01,-1057.63)">
                <path d="M1009.98,678.622C1081.63,678.622 1139.8,736.793 1139.8,808.443C1139.8,880.093 1081.63,938.264 1009.98,938.264C938.331,938.264 880.16,880.093 880.16,808.443C880.16,736.793 938.331,678.622 1009.98,678.622ZM1009.98,678.622C1081.63,678.622 1139.8,736.793 1139.8,808.443C1139.8,880.093 1081.63,938.264 1009.98,938.264C938.331,938.264 880.16,880.093 880.16,808.443C880.16,736.793 938.331,678.622 1009.98,678.622Z" style="fill:none;stroke:white;stroke-width:6.96px;"/>
            </g>
        </g>
    </g>
</svg>
